# xmcd
#
# Track frame offsets: 
#        150
#        15787
#        39877
#        59325
#        88060
#        103317
#        126600
#        142610
#        165862
#        181432
#        200250
#        226050
#        240365
#        260655
#        288930
#
# Disc length: 4397 seconds
#
# Revision: 2
# Processed by: cddbd v1.5.2PL0 Copyright (c) Steve Scherf et al.
# Submitted via: ExactAudioCopy v0.99pb3
#
DISCID=bb112b0f
DTITLE=Various Artist - Today's Blues Masters vol. 1
DYEAR=1996
DGENRE=Blues Ballad
TTITLE0=buddy guy and Paul Rodgers - Some Kind Of Wonderful
TTITLE1=B.B. King - Standing On The Edge
TTITLE2=Phil Upchurch and James Van Buren - Sweet Woman Blues
TTITLE3=Roy Buchanan - Drowning On Dry Land
TTITLE4=Katie Webster - Two Fisted Mama
TTITLE5=John Mayall and Buddy Guy - I Could Cry
TTITLE6=Bonnie Raitt - The Road's My Middie Name
TTITLE7=John Hammond and John Lee Hooker - Driffin Blues
TTITLE8=Pops Staples - This May Be The Last Time
TTITLE9=Robert Cray - Move a Mountain
TTITLE10=Saffire - The Middle Aged Blues Boogie
TTITLE11=Loo Rawls - I Just Want To Make Love To You
TTITLE12=john Lee Hooker - I'm In The Mood
TTITLE13=Albert Collins - Don't Mistake Kindness
TTITLE14=Tin Pan Allay - Tin Pan Allay
EXTD=1. Buddy Guy&Paul Rodgers\n2. B.B.King\n3. Phil Upchurch&James Va
EXTD=n Buren \n4. Roy Buchanan\n5. Katie Webster\n6. John Mayall&Buddy
EXTD=Guy\n7. Bonnie Raitt\n8. John Hammond\n9. Pops Staples\n10. Robe
EXTD=rt Cray\n11. Saffire\n12. Lou Rawls\n13. John Lee Hooker\n14. Alb
EXTD=ert Collins\n15. Stevie Ray Vaughan
EXTT0=
EXTT1=
EXTT2=
EXTT3=
EXTT4=
EXTT5=
EXTT6=
EXTT7=
EXTT8=
EXTT9=
EXTT10=
EXTT11=
EXTT12=
EXTT13=
EXTT14=
PLAYORDER=
